<svg class="svg-icon" style="width: 1em; height: 1em; vertical-align: middle; fill: currentColor; overflow: hidden;" viewBox="0 0 1024 1024" version="1.1" xmlns="http://www.w3.org/2000/svg">
  <path d="M949.928934 110.057009c-11.295588-5.29793-26.089809-5.497852-37.385396 0.199922-74.570871 36.585709-154.539633 36.885592-232.409215 2.698946-40.88403-23.490824-88.965248-53.978914-136.146818-101.260446C536.890277 4.498243 526.094494 0 512.899649 0.499805l-1.599376 9.396329-1.599375-9.49629c-11.395549 0-22.091371 4.398282-29.588442 12.095275-47.281531 51.180008-97.461929 80.76845-130.349082 98.261617-81.568137 36.785631-161.5369 36.785631-237.307302-0.399844-11.295588-5.597813-25.889887-5.497852-37.585318-0.099961-11.49551 5.497852-18.692698 16.093713-18.692699 27.389301v462.319406c0 62.375635 20.292073 122.452167 59.976572 178.030457 51.979695 85.066771 161.237017 196.723155 385.849278 244.604452 1.699336 0.599766 3.09879 0.699727 5.497852 0.999609 1.699336 0.199922 3.298711 0.399844 4.998048 0.399844h0.099961c1.699336 0 3.398672-0.199922 3.798516-0.299883l5.29793-0.699727c226.011714-48.28114 335.269036-159.937524 386.848888-244.50449 39.984381-56.078094 60.276455-116.154627 60.276454-178.530262V137.646232c0-11.295588-7.197189-21.891449-18.89262-27.589223z m-818.580242 77.269816c90.764545 27.189379 186.926982 15.793831 279.290902-33.087075 43.582975-23.09098 78.469348-50.280359 101.860211-71.072237 23.490824 20.791878 58.177275 47.881296 101.76025 71.072237 92.563842 48.880906 188.82624 60.276455 279.390863 33.087075v402.642718c0 0.699727-0.99961 72.271769-48.381102 153.440063l-5.098008 8.39672c-31.987505 42.583366-78.769231 82.967591-139.145646 119.953143-77.169856 47.381492-154.839516 75.370558-188.526357 86.366263-47.18157-15.393987-238.506833-84.167122-331.870363-213.116751-48.081218-81.268255-49.380711-154.439672-49.380711-155.139399V187.326825z" fill="#07ff88"/>
  <path d="M376.752831 560.880906l97.861773 77.869582c5.697774 4.498243 12.795002 6.997267 19.892229 6.997267 1.499414 0 3.09879-0.199922 4.898087-0.399844 8.896525-1.499414 16.79344-6.497462 21.391644-13.694651l103.759469-155.139398c9.796173-14.494338 5.797735-34.286607-8.696603-44.08278-14.194455-9.596251-34.786412-5.29793-44.08278 8.796563l-84.566966 126.350645-70.872316-56.377978c-13.294807-10.595861-34.186646-8.196798-44.682546 4.998048-5.29793 6.697384-7.796954 15.094104-6.797344 23.490824 1.09957 8.39672 5.29793 15.993752 11.895353 21.191722z" fill="#07ff88"/>
  <path d="M509.500976 786.992581c-143.044123 0-259.498633-116.45451-259.498633-259.498633s116.45451-259.498633 259.498633-259.498634c143.044123 0 259.398672 116.45451 259.398673 259.498634S652.5451 786.992581 509.500976 786.992581z m0-452.123389c-106.158532 0-192.524795 86.366263-192.524795 192.524795 0 106.258493 86.366263 192.624756 192.524795 192.624756 106.258493 0 192.624756-86.466224 192.624756-192.624756 0-106.158532-86.366263-192.524795-192.624756-192.524795z" fill="#07ff88"/>
</svg>
